<svg id="visual" viewBox="0 0 900 600" width="900" height="600" xmlns="http://www.w3.org/2000/svg" xmlns:xlink="http://www.w3.org/1999/xlink" version="1.1"><path d="M0 55L53 49L106 49L159 49L212 55L265 55L318 55L371 55L424 49L476 49L529 49L582 55L635 55L688 55L741 49L794 55L847 49L900 55L900 0L847 0L794 0L741 0L688 0L635 0L582 0L529 0L476 0L424 0L371 0L318 0L265 0L212 0L159 0L106 0L53 0L0 0Z" fill="#ffffff"></path><path d="M0 211L53 217L106 217L159 199L212 217L265 211L318 187L371 205L424 199L476 193L529 199L582 211L635 187L688 205L741 205L794 205L847 205L900 211L900 53L847 47L794 53L741 47L688 53L635 53L582 53L529 47L476 47L424 47L371 53L318 53L265 53L212 53L159 47L106 47L53 47L0 53Z" fill="#f4fcff"></path><path d="M0 277L53 283L106 283L159 271L212 283L265 283L318 259L371 277L424 271L476 265L529 271L582 283L635 259L688 265L741 271L794 271L847 277L900 283L900 209L847 203L794 203L741 203L688 203L635 185L582 209L529 197L476 191L424 197L371 203L318 185L265 209L212 215L159 197L106 215L53 215L0 209Z" fill="#e9faff"></path><path d="M0 325L53 331L106 325L159 313L212 325L265 331L318 301L371 319L424 319L476 313L529 313L582 325L635 307L688 313L741 313L794 313L847 325L900 331L900 281L847 275L794 269L741 269L688 263L635 257L582 281L529 269L476 263L424 269L371 275L318 257L265 281L212 281L159 269L106 281L53 281L0 275Z" fill="#ddf7ff"></path><path d="M0 385L53 385L106 379L159 373L212 379L265 385L318 361L371 373L424 379L476 373L529 367L582 379L635 367L688 373L741 373L794 373L847 385L900 385L900 329L847 323L794 311L741 311L688 311L635 305L582 323L529 311L476 311L424 317L371 317L318 299L265 329L212 323L159 311L106 323L53 329L0 323Z" fill="#d1f4ff"></path><path d="M0 511L53 517L106 517L159 505L212 505L265 511L318 505L371 517L424 517L476 505L529 505L582 505L635 511L688 505L741 505L794 505L847 523L900 511L900 383L847 383L794 371L741 371L688 371L635 365L582 377L529 365L476 371L424 377L371 371L318 359L265 383L212 377L159 371L106 377L53 383L0 383Z" fill="#c5f1ff"></path><path d="M0 601L53 601L106 601L159 601L212 601L265 601L318 601L371 601L424 601L476 601L529 601L582 601L635 601L688 601L741 601L794 601L847 601L900 601L900 509L847 521L794 503L741 503L688 503L635 509L582 503L529 503L476 503L424 515L371 515L318 503L265 509L212 503L159 503L106 515L53 515L0 509Z" fill="#b8eeff"></path></svg>